<svg preserveAspectRatio="none" width="100%" height="100%" overflow="visible" style="display: block;" viewBox="0 0 60 60" fill="none" xmlns="http://www.w3.org/2000/svg">
<path id="Vector" d="M15 45C15 53.2842 8.28422 60 0 60V45C0 36.7158 6.71578 30 15 30V45ZM30 30C38.2842 30 45 36.7158 45 45V60C36.7158 60 30 53.2842 30 45C30 53.2842 23.2842 60 15 60V45C15 36.7158 21.7158 30 30 30ZM45 30C53.2842 30 60 36.7158 60 45V60C51.7158 60 45 53.2842 45 45V30ZM0 0C8.28422 0 15 6.71578 15 15V30C6.71578 30 0 23.2842 0 15V0ZM45 15C45 23.2842 38.2842 30 30 30C21.7158 30 15 23.2842 15 15V0C23.2842 0 30 6.71578 30 15C30 6.71578 36.7158 0 45 0V15ZM60 15C60 23.2842 53.2842 30 45 30V15C45 6.71578 51.7158 0 60 0V15Z" fill="var(--fill-0, black)" fill-opacity="0.2"/>
</svg>
