<svg preserveAspectRatio="none" width="100%" height="100%" overflow="visible" style="display: block;" viewBox="0 0 60 60" fill="none" xmlns="http://www.w3.org/2000/svg">
<path id="Vector" d="M37.5 0C41.5774 0 44.8948 3.25383 44.9974 7.30641L45.0026 7.69359C45.1036 11.682 48.318 14.8964 52.3064 14.9974L52.6936 15.0026C56.7462 15.1052 60 18.4226 60 22.5C60 26.6421 56.6421 30 52.5 30C56.6421 30 60 33.3579 60 37.5C60 41.5774 56.7462 44.8948 52.6936 44.9974L52.3064 45.0026C48.318 45.1036 45.1036 48.318 45.0026 52.3064L44.9974 52.6936C44.8948 56.7462 41.5774 60 37.5 60C33.3579 60 30 56.6421 30 52.5C30 56.6421 26.6421 60 22.5 60C18.4226 60 15.1052 56.7462 15.0023 52.6936L14.9977 52.3064C14.8964 48.318 11.682 45.1036 7.69359 45.0026L7.30641 44.9974C3.25383 44.8948 0 41.5774 0 37.5C0 33.3579 3.35789 30 7.5 30C3.35789 30 0 26.6421 0 22.5C0 18.4226 3.25383 15.1052 7.30641 15.0023L7.69359 14.9977C11.682 14.8964 14.8964 11.682 14.9974 7.69359L15.0026 7.30641C15.1052 3.25383 18.4226 0 22.5 0C26.6421 0 30 3.35789 30 7.5C30 3.35789 33.3579 0 37.5 0ZM30 15C30 23.2842 23.2842 30 15 30C23.2842 30 30 36.7158 30 45C30 36.7158 36.7158 30 45 30C36.7158 30 30 23.2842 30 15Z" fill="var(--fill-0, black)" fill-opacity="0.2"/>
</svg>
