<svg preserveAspectRatio="none" width="100%" height="100%" overflow="visible" style="display: block;" viewBox="0 0 11.3411 11.3375" fill="none" xmlns="http://www.w3.org/2000/svg">
<g id="arrow up right">
<path id="Vector" d="M9.46612 0H4.46612C4.30036 0 4.14139 0.0658481 4.02418 0.183058C3.90697 0.300269 3.84112 0.45924 3.84112 0.625C3.84112 0.79076 3.90697 0.949732 4.02418 1.06694C4.14139 1.18415 4.30036 1.25 4.46612 1.25H9.20987L0.184874 10.2688C0.126294 10.3269 0.0797974 10.396 0.048067 10.4721C0.0163366 10.5483 0 10.63 0 10.7125C0 10.795 0.0163366 10.8767 0.048067 10.9529C0.0797974 11.029 0.126294 11.0981 0.184874 11.1563C0.243274 11.2142 0.312534 11.26 0.388682 11.2911C0.464831 11.3222 0.54637 11.338 0.628624 11.3375C0.710878 11.338 0.792417 11.3222 0.868566 11.2911C0.944714 11.26 1.01397 11.2142 1.07237 11.1563L10.0911 2.13125V6.875C10.0911 7.04076 10.157 7.19973 10.2742 7.31694C10.3914 7.43415 10.5504 7.5 10.7161 7.5C10.8819 7.5 11.0409 7.43415 11.1581 7.31694C11.2753 7.19973 11.3411 7.04076 11.3411 6.875V1.875C11.3411 1.37772 11.1436 0.900806 10.7919 0.549175C10.4403 0.197544 9.9634 0 9.46612 0Z" fill="var(--fill-0, white)"/>
</g>
</svg>
