<svg width="18" height="18" viewBox="0 0 18 18" fill="none" xmlns="http://www.w3.org/2000/svg">
  <g fill="black">
    <g transform="translate(0 0)">
      <path d="M4.05411 0H5.35082C5.29328 0.0386938 5.276 0.0366124 5.2081 0.0312634C4.95909 0.17113 4.73931 0.355231 4.52621 0.534628C3.06283 1.76657 2.28212 3.77923 2.03186 5.61108C1.70215 8.02438 2.06508 10.5711 3.40031 12.6267C3.79492 13.2342 3.29535 14.2294 2.87376 14.6943C2.84634 14.7266 2.85813 14.7516 2.87075 14.7821C2.92946 14.8174 2.97459 14.8212 3.04177 14.8333C3.06584 14.9089 3.05694 14.9547 3.1057 15.0221C3.22864 15.1922 3.53199 15.4352 3.64968 15.5788C3.9118 15.8986 5.89351 17.8578 5.89468 17.9655L5.85809 18H3.69807C3.60492 17.9513 3.19976 17.9014 3.06237 17.8722C2.67282 17.7871 2.29903 17.6416 1.95455 17.4407C0.986328 16.8736 0.312115 15.914 0.106859 14.8109C0.0545681 14.5269 0.0659654 14.0574 0 13.8311V4.11892C0.0371009 3.9941 0.0332174 3.72366 0.0504369 3.57182C0.106198 3.04378 0.272965 2.47897 0.521666 2.01669C1.12539 0.894609 2.31245 0.140493 3.58096 0.0543059C3.70986 0.0455477 3.93852 0.0389899 4.05411 0Z"/>
    </g>
    <g transform="translate(3.042 13.311)">
      <path d="M2.16323 1.10299C3.95643 2.18039 5.73154 2.6014 7.83652 2.61921C9.88172 2.63649 12.088 2.16362 13.7974 0.996064C14.2543 0.684017 14.5538 0.384574 14.9431 0L14.9582 0.0162424V0.56598L14.9551 0.58173C14.9343 0.690152 14.9368 0.805623 14.9273 0.916769C14.9085 1.12124 14.8814 1.32488 14.8463 1.52717C14.6599 2.51176 14.0963 3.38454 13.2755 3.95937C12.8565 4.25162 12.383 4.4566 11.8831 4.56224C11.762 4.58685 11.3286 4.6424 11.2478 4.68916H2.81631L2.85291 4.6547C2.85173 4.54695 0.870029 2.5878 0.607904 2.26796C0.490219 2.12435 0.186873 1.88133 0.0639315 1.71127C0.0151698 1.64382 0.0240645 1.59801 0 1.52246C0.816275 1.54461 1.41404 1.394 2.16323 1.10299Z"/>
    </g>
    <g transform="translate(7.945 6.89)">
      <path d="M1.61625 0.00673243C2.03437 -0.0444375 2.33267 0.209654 2.63025 0.310306C2.69237 0.29373 2.62589 0.204469 2.67708 0.131291C2.80884 0.112236 3.18528 0.124032 3.34404 0.124664L3.34302 3.37229C2.969 3.37672 2.80343 3.47996 2.64589 3.08638C2.47078 3.21036 2.38558 3.2573 2.18441 3.33063C-0.356591 3.87329 -0.854017 0.300076 1.61625 0.00673243Z"/>
    </g>
    <g transform="translate(8.617 7.605)" fill="white">
      <path d="M0.895831 0.00540168C1.4458 -0.0516042 1.93742 0.349107 1.99251 0.899267C2.0476 1.44944 1.6452 1.93966 1.09485 1.99284C0.547186 2.04576 0.0598677 1.64576 0.00504148 1.09829C-0.0497671 0.550798 0.348554 0.0621087 0.895831 0.00540168Z"/>
    </g>
    <g transform="translate(13.138 6.898)">
      <path d="M1.49664 0.0131007C2.43141 -0.102616 3.28307 0.561099 3.39925 1.49578C3.51544 2.43048 2.85216 3.28249 1.91751 3.39914C0.982218 3.51588 0.129468 2.85202 0.0132064 1.91665C-0.103055 0.981287 0.561222 0.128888 1.49664 0.0131007Z"/>
    </g>
    <g transform="translate(13.837 7.594)" fill="white">
      <path d="M0.853399 0.0123982C1.40474 -0.074262 1.92189 0.302613 2.00823 0.854003C2.09456 1.40539 1.71738 1.92231 1.16594 2.00832C0.614951 2.09425 0.0985763 1.71746 0.0123029 1.16652C-0.073953 0.615609 0.302535 0.0990056 0.853399 0.0123982Z"/>
    </g>
    <g transform="translate(4.145 5.962)">
      <path d="M0.129059 0L3.59155 0.000281632C3.59605 0.403541 3.49761 0.560584 3.24828 0.863455C3.07962 1.06835 2.90421 1.2863 2.73878 1.49467L1.04001 3.63899C1.31344 3.62665 1.65836 3.63542 1.93609 3.63537L3.59038 3.63524C3.59299 3.84864 3.61471 4.04582 3.51468 4.23571C3.47222 4.2782 3.41673 4.29446 3.35804 4.2965C2.98403 4.30944 2.60432 4.30344 2.23014 4.30339L0 4.30114C0.00137109 3.91665 0.090879 3.76427 0.327902 3.47518C1.07439 2.56472 1.79176 1.62357 2.54433 0.718893C1.73955 0.714533 0.934752 0.715096 0.129973 0.720563L0.129059 0Z"/>
    </g>
    <g transform="translate(11.903 5.908)">
      <path d="M0.012592 8.79765e-05L0.75177 0C0.739448 1.017 0.735704 2.03407 0.740503 3.05112C0.741136 3.47806 0.757149 3.9347 0.751401 4.35567C0.399294 4.36706 4.11976e-05 4.48894 0.0123635 4.02641C0.0135764 3.98243 0.0151058 3.93845 0.0169339 3.89449C-0.0150934 2.80443 0.00617663 1.54742 0.0170048 0.451125C0.0144735 0.300797 0.0130139 0.150451 0.012592 8.79765e-05Z"/>
    </g>
  </g>
</svg>
