<svg width="18" height="18" viewBox="0 0 18 18" fill="none" xmlns="http://www.w3.org/2000/svg">
  <path d="M7.29 8.56C8.16 8.89 8.59 9.52 8.59 10.45C8.59 11.32 8.29 11.97 7.69 12.4C7.09 12.83 6.25 13.04 5.17 13.04H1.8V4.94H5.15C6.15 4.94 6.92 5.14 7.46 5.54C8 5.93 8.27 6.51 8.27 7.27C8.27 7.85 7.94 8.28 7.29 8.56ZM3.54 8.17H5.02C5.99 8.17 6.47 7.84 6.47 7.19C6.47 6.57 6 6.26 5.06 6.26H3.54V8.17ZM5.17 11.69C6.25 11.69 6.79 11.32 6.79 10.58C6.79 9.86 6.25 9.5 5.17 9.5H3.54V11.69H5.17Z" fill="black"/>
  <path d="M12.78 13.17C11.75 13.17 10.94 12.88 10.35 12.3C9.76 11.71 9.46 10.91 9.46 9.9C9.46 8.88 9.74 8.06 10.3 7.45C10.87 6.84 11.62 6.53 12.57 6.53C13.48 6.53 14.19 6.8 14.7 7.34C15.22 7.87 15.48 8.62 15.48 9.58V10.18H11.17C11.22 10.7 11.39 11.1 11.68 11.38C11.98 11.66 12.38 11.8 12.89 11.8C13.64 11.8 14.35 11.57 15.02 11.11V12.5C14.42 12.95 13.67 13.17 12.78 13.17ZM12.55 7.83C12.17 7.83 11.86 7.95 11.63 8.19C11.4 8.43 11.26 8.76 11.2 9.18H13.82C13.81 8.76 13.69 8.43 13.46 8.19C13.24 7.95 12.94 7.83 12.55 7.83Z" fill="black"/>
  <path d="M10.62 5.1H14.34V6.03H10.62V5.1Z" fill="black"/>
</svg>
