<svg width="32" height="32" viewBox="0 0 32 32" fill="none" xmlns="http://www.w3.org/2000/svg">
<rect width="32" height="32" fill="#E5E5E5"/>
<g id="Magicons">
<rect x="-112" y="-1264" width="704" height="7322" rx="8" fill="url(#paint0_linear_403_422)"/>
<g id="Flat/Business/business-target">
<g id="bussines target">
<path id="Vector" d="M16 28C13.8655 28.0081 11.7676 27.4468 9.92234 26.374C8.07713 25.3011 6.55148 23.7555 5.50268 21.8965C4.45388 20.0375 3.9199 17.9324 3.9558 15.7982C3.9917 13.6641 4.59617 11.5782 5.70689 9.75549C6.81762 7.93281 8.39439 6.43938 10.2746 5.42917C12.1549 4.41897 14.2706 3.92855 16.4035 4.00848C18.5364 4.08841 20.6095 4.73581 22.4088 5.88391C24.2082 7.03202 25.6688 8.63928 26.64 10.54C26.762 10.7773 26.7847 11.0535 26.7031 11.3076C26.6215 11.5617 26.4423 11.773 26.205 11.895C25.9676 12.017 25.6915 12.0397 25.4374 11.9581C25.1833 11.8765 24.972 11.6973 24.85 11.46C23.8302 9.45862 22.1663 7.85888 20.1265 6.91851C18.0866 5.97814 15.7895 5.75192 13.6054 6.27629C11.4213 6.80066 9.47734 8.04509 8.08675 9.80906C6.69616 11.573 5.93994 13.7538 5.93994 16C5.93994 18.2462 6.69616 20.4269 8.08675 22.1909C9.47734 23.9549 11.4213 25.1993 13.6054 25.7237C15.7895 26.248 18.0866 26.0218 20.1265 25.0814C22.1663 24.1411 23.8302 22.5413 24.85 20.54C24.972 20.3026 25.1833 20.1234 25.4374 20.0418C25.6915 19.9603 25.9676 19.983 26.205 20.105C26.4423 20.227 26.6215 20.4383 26.7031 20.6924C26.7847 20.9465 26.762 21.2226 26.64 21.46C25.6376 23.4217 24.1146 25.0697 22.2378 26.2233C20.361 27.3768 18.2029 27.9915 16 28Z" fill="#5233FF"/>
<path id="Vector_2" d="M15.9999 23C14.8322 23.0008 13.6829 22.7094 12.6567 22.1525C11.6304 21.5956 10.7597 20.7908 10.124 19.8114C9.4882 18.832 9.10753 17.7091 9.01661 16.545C8.9257 15.3809 9.12743 14.2126 9.60343 13.1464C10.0794 12.0801 10.8146 11.1499 11.742 10.4404C12.6693 9.73095 13.7595 9.26471 14.9131 9.08418C16.0667 8.90364 17.2471 9.01455 18.3469 9.4068C19.4467 9.79905 20.4309 10.4602 21.2099 11.33C21.2979 11.4278 21.3657 11.542 21.4096 11.6661C21.4534 11.7902 21.4724 11.9216 21.4654 12.053C21.4585 12.1844 21.4257 12.3132 21.369 12.4319C21.3123 12.5506 21.2327 12.657 21.1349 12.745C21.037 12.833 20.9228 12.9008 20.7988 12.9447C20.6747 12.9885 20.5432 13.0075 20.4118 13.0006C20.2804 12.9936 20.1517 12.9608 20.033 12.9041C19.9143 12.8474 19.8079 12.7678 19.7199 12.67C19.0452 11.9143 18.1569 11.3814 17.1727 11.1419C16.1884 10.9023 15.1546 10.9673 14.2081 11.3283C13.2616 11.6894 12.4471 12.3294 11.8725 13.1636C11.2978 13.9979 10.9901 14.987 10.9901 16C10.9901 17.013 11.2978 18.0021 11.8725 18.8364C12.4471 19.6706 13.2616 20.3106 14.2081 20.6717C15.1546 21.0327 16.1884 21.0977 17.1727 20.8581C18.1569 20.6186 19.0452 20.0857 19.7199 19.33C19.8079 19.2322 19.9143 19.1526 20.033 19.0959C20.1517 19.0392 20.2804 19.0064 20.4118 18.9994C20.5432 18.9925 20.6747 19.0115 20.7988 19.0553C20.9228 19.0992 21.037 19.167 21.1349 19.255C21.2327 19.343 21.3123 19.4494 21.369 19.5681C21.4257 19.6868 21.4585 19.8156 21.4654 19.947C21.4724 20.0784 21.4534 20.2098 21.4096 20.3339C21.3657 20.458 21.2979 20.5722 21.2099 20.67C20.5538 21.4025 19.7508 21.9886 18.8531 22.3901C17.9554 22.7916 16.9832 22.9994 15.9999 23Z" fill="#5233FF"/>
<path id="Vector_3" d="M27.36 16L28.71 14.65C28.8962 14.4626 29.0008 14.2091 29.0008 13.945C29.0008 13.6808 28.8962 13.4273 28.71 13.24C28.617 13.1462 28.5064 13.0718 28.3846 13.0211C28.2627 12.9703 28.132 12.9442 28 12.9442C27.868 12.9442 27.7373 12.9703 27.6154 13.0211C27.4936 13.0718 27.383 13.1462 27.29 13.24L25.53 15H16C15.7348 15 15.4804 15.1053 15.2929 15.2928C15.1054 15.4804 15 15.7347 15 16C15 16.2652 15.1054 16.5195 15.2929 16.7071C15.4804 16.8946 15.7348 17 16 17H25.58L27.22 18.64C27.3134 18.7326 27.4243 18.806 27.5461 18.8557C27.6679 18.9055 27.7984 18.9307 27.93 18.93C28.1266 18.9291 28.3186 18.8704 28.4819 18.7611C28.6453 18.6518 28.7729 18.4967 28.8486 18.3153C28.9244 18.134 28.945 17.9343 28.9079 17.7412C28.8708 17.5482 28.7776 17.3703 28.64 17.23L27.36 16Z" fill="#FF64C8"/>
<path id="Vector_4" d="M15.9999 17H17.7199C17.6379 17.1516 17.5334 17.2898 17.4099 17.41C17.1306 17.6909 16.7743 17.8826 16.386 17.9607C15.9977 18.0388 15.595 17.9999 15.2288 17.8489C14.8627 17.6979 14.5496 17.4415 14.3293 17.1124C14.1091 16.7832 13.9915 16.3961 13.9915 16C13.9915 15.6039 14.1091 15.2168 14.3293 14.8876C14.5496 14.5585 14.8627 14.3021 15.2288 14.1511C15.595 14.0001 15.9977 13.9612 16.386 14.0393C16.7743 14.1174 17.1306 14.3091 17.4099 14.59C17.5334 14.7102 17.6379 14.8484 17.7199 15H15.9999C15.7347 15 15.4803 15.1054 15.2928 15.2929C15.1052 15.4804 14.9999 15.7348 14.9999 16C14.9999 16.2652 15.1052 16.5196 15.2928 16.7071C15.4803 16.8946 15.7347 17 15.9999 17Z" fill="#5233FF"/>
</g>
</g>
</g>
<defs>
<linearGradient id="paint0_linear_403_422" x1="240" y1="-1264" x2="240" y2="6058" gradientUnits="userSpaceOnUse">
<stop stop-color="#FDFDFD"/>
<stop offset="0.0677083" stop-color="white"/>
<stop offset="1" stop-color="white"/>
</linearGradient>
</defs>
</svg>
