<svg preserveAspectRatio="none" width="100%" height="100%" overflow="visible" style="display: block;" viewBox="0 0 23.6975 23.8199" fill="none" xmlns="http://www.w3.org/2000/svg">
<g id="star">
<path id="Vector" d="M13.7488 2.1255L14.9488 5.9755C15.0672 6.38953 15.316 6.75429 15.6584 7.01553C16.0007 7.27678 16.4182 7.42056 16.8488 7.4255H20.9288C21.3629 7.45013 21.7792 7.6064 22.1222 7.87352C22.4653 8.14063 22.7189 8.5059 22.8492 8.92071C22.9795 9.33552 22.9803 9.78018 22.8517 10.1955C22.723 10.6108 22.4708 10.9771 22.1288 11.2455L18.7488 13.9255C18.4131 14.2043 18.1675 14.5763 18.043 14.9945C17.9184 15.4127 17.9204 15.8584 18.0488 16.2755L19.2688 20.2755C19.4459 20.6847 19.4812 21.1414 19.369 21.573C19.2568 22.0045 19.0037 22.3862 18.6497 22.6574C18.2958 22.9286 17.8614 23.0738 17.4155 23.0698C16.9696 23.0658 16.5378 22.913 16.1888 22.6355L13.0288 20.1755C12.6915 19.9128 12.2763 19.7701 11.8488 19.7701C11.4213 19.7701 11.006 19.9128 10.6688 20.1755L7.50877 22.6055C7.15972 22.883 6.72795 23.0358 6.28206 23.0398C5.83618 23.0438 5.40176 22.8986 5.04781 22.6274C4.69387 22.3562 4.4407 21.9745 4.32855 21.543C4.21639 21.1114 4.25166 20.6547 4.42877 20.2455L5.64877 16.2455C5.77713 15.8284 5.77915 15.3827 5.65458 14.9645C5.53001 14.5463 5.28442 14.1743 4.94877 13.8955L1.56877 11.2455C1.22674 10.9771 0.974591 10.6108 0.845894 10.1955C0.717197 9.78018 0.71806 9.33552 0.848366 8.92071C0.978673 8.5059 1.23224 8.14063 1.57531 7.87352C1.91838 7.6064 2.33468 7.45013 2.76877 7.4255H6.84877C7.27937 7.42056 7.69687 7.27678 8.03919 7.01553C8.38152 6.75429 8.63038 6.38953 8.74877 5.9755L9.94877 2.1255C10.0803 1.72536 10.3348 1.37696 10.676 1.12997C11.0171 0.882976 11.4276 0.75 11.8488 0.75C12.27 0.75 12.6804 0.882976 13.0216 1.12997C13.3628 1.37696 13.6173 1.72536 13.7488 2.1255Z" stroke="var(--stroke-0, black)" stroke-width="1.5" stroke-linecap="round" stroke-linejoin="round"/>
</g>
</svg>
