<svg width="32" height="32" viewBox="0 0 32 32" fill="none" xmlns="http://www.w3.org/2000/svg">
<rect width="32" height="32" fill="#E5E5E5"/>
<g id="Magicons">
<rect x="-304" y="-1390" width="704" height="7322" rx="8" fill="url(#paint0_linear_403_422)"/>
<g id="Flat/Business/briefcase">
<g id="briefcase">
<path id="Vector" d="M19 4H13C11.9391 4 10.9217 4.42143 10.1716 5.17157C9.42143 5.92172 9 6.93913 9 8V10H11V8C11 7.46957 11.2107 6.96086 11.5858 6.58579C11.9609 6.21071 12.4696 6 13 6H19C19.5304 6 20.0391 6.21071 20.4142 6.58579C20.7893 6.96086 21 7.46957 21 8V10H23V8C23 6.93913 22.5786 5.92172 21.8284 5.17157C21.0783 4.42143 20.0609 4 19 4Z" fill="#FF64C8"/>
<path id="Vector_2" d="M28 15C28 16.3261 27.4732 17.5979 26.5355 18.5355C25.5979 19.4732 24.3261 20 23 20H9C7.95059 20 6.92778 19.6698 6.07645 19.0562C5.22512 18.4426 4.58844 17.5767 4.25658 16.5811C3.92473 15.5856 3.91453 14.5108 4.22743 13.5092C4.54033 12.5075 5.16047 11.6296 6 11C6.59046 10.5533 7.27411 10.2457 8 10.1C8.32881 10.0311 8.66405 9.99757 9 10H23C23.3359 9.99757 23.6712 10.0311 24 10.1C24.7259 10.2457 25.4095 10.5533 26 11C26.621 11.4657 27.125 12.0697 27.4721 12.7639C27.8193 13.4582 28 14.2238 28 15Z" fill="#5233FF"/>
<path id="Vector_3" d="M23 22C23.9319 21.9988 24.8542 21.8116 25.7128 21.4493C26.5714 21.087 27.349 20.5568 28 19.89V23C28 24.3261 27.4732 25.5979 26.5355 26.5355C25.5979 27.4732 24.3261 28 23 28H9C7.67392 28 6.40215 27.4732 5.46447 26.5355C4.52678 25.5979 4 24.3261 4 23V19.89C4.65101 20.5568 5.42861 21.087 6.2872 21.4493C7.14579 21.8116 8.06809 21.9988 9 22H23Z" fill="#5233FF"/>
</g>
</g>
</g>
<defs>
<linearGradient id="paint0_linear_403_422" x1="48" y1="-1390" x2="48" y2="5932" gradientUnits="userSpaceOnUse">
<stop stop-color="#FDFDFD"/>
<stop offset="0.0677083" stop-color="white"/>
<stop offset="1" stop-color="white"/>
</linearGradient>
</defs>
</svg>
