<svg width="32" height="32" viewBox="0 0 32 32" fill="none" xmlns="http://www.w3.org/2000/svg">
<rect width="32" height="32" fill="#E5E5E5"/>
<g id="Magicons">
<rect x="-112" y="-624" width="704" height="7322" rx="8" fill="url(#paint0_linear_403_422)"/>
<g id="Flat/Arrow/arrow-up-right">
<g id="arrow up right">
<path id="Vector" d="M22.0701 8.92999H21.6601L7.22011 23.36C7.12639 23.453 7.05199 23.5636 7.00122 23.6854C6.95045 23.8073 6.92432 23.938 6.92432 24.07C6.92432 24.202 6.95045 24.3327 7.00122 24.4546C7.05199 24.5764 7.12639 24.687 7.22011 24.78C7.31355 24.8727 7.42437 24.946 7.54621 24.9958C7.66805 25.0455 7.79851 25.0708 7.93011 25.07C8.06172 25.0708 8.19218 25.0455 8.31402 24.9958C8.43586 24.946 8.54668 24.8727 8.64012 24.78L23.0701 10.34V9.92999C23.0701 9.66478 22.9648 9.41042 22.7772 9.22289C22.5897 9.03535 22.3353 8.92999 22.0701 8.92999Z" fill="#5233FF"/>
<path id="Vector_2" d="M22.0701 6.92999H14.0701C13.8049 6.92999 13.5505 7.03535 13.363 7.22289C13.1754 7.41042 13.0701 7.66478 13.0701 7.92999C13.0701 8.19521 13.1754 8.44956 13.363 8.6371C13.5505 8.82464 13.8049 8.92999 14.0701 8.92999H22.0701C22.3353 8.92999 22.5896 9.03535 22.7772 9.22289C22.9647 9.41042 23.0701 9.66478 23.0701 9.92999V17.93C23.0701 18.1952 23.1754 18.4496 23.363 18.6371C23.5505 18.8246 23.8049 18.93 24.0701 18.93C24.3353 18.93 24.5896 18.8246 24.7772 18.6371C24.9647 18.4496 25.0701 18.1952 25.0701 17.93V9.92999C25.0701 9.13434 24.754 8.37128 24.1914 7.80867C23.6288 7.24606 22.8657 6.92999 22.0701 6.92999Z" fill="#FF64C8"/>
</g>
</g>
</g>
<defs>
<linearGradient id="paint0_linear_403_422" x1="240" y1="-624" x2="240" y2="6698" gradientUnits="userSpaceOnUse">
<stop stop-color="#FDFDFD"/>
<stop offset="0.0677083" stop-color="white"/>
<stop offset="1" stop-color="white"/>
</linearGradient>
</defs>
</svg>
