<svg preserveAspectRatio="none" width="100%" height="100%" overflow="visible" style="display: block;" viewBox="0 0 19.5619 23.4955" fill="none" xmlns="http://www.w3.org/2000/svg">
<g id="notification">
<path id="Vector" d="M12.6109 18.75C12.7701 19.2024 12.8185 19.6863 12.752 20.1612C12.6856 20.6361 12.5062 21.0882 12.2291 21.4795C11.9519 21.8708 11.585 22.19 11.159 22.4103C10.733 22.6306 10.2605 22.7455 9.78095 22.7455C9.3014 22.7455 8.82885 22.6306 8.40289 22.4103C7.97694 22.19 7.60999 21.8708 7.33282 21.4795C7.05565 21.0882 6.87633 20.6361 6.80988 20.1612C6.74344 19.6863 6.79181 19.2024 6.95095 18.75H12.6109Z" stroke="var(--stroke-0, black)" stroke-width="1.5" stroke-linecap="round" stroke-linejoin="round"/>
<path id="Vector_2" d="M16.7809 13.29V10.04C16.8073 8.18554 16.117 6.39245 14.8539 5.03437C13.5909 3.6763 11.8524 2.858 10.0009 2.75C9.06335 2.72052 8.12939 2.87979 7.25455 3.21835C6.37971 3.55691 5.58185 4.06785 4.90836 4.72082C4.23487 5.37379 3.69949 6.15546 3.33403 7.01941C2.96857 7.88335 2.78048 8.81194 2.78095 9.75V13.29C2.78361 13.6373 2.69202 13.9788 2.51592 14.2782C2.33982 14.5776 2.08581 14.8236 1.78095 14.99C1.41612 15.1921 1.12359 15.5031 0.944281 15.8797C0.764976 16.2562 0.707867 16.6794 0.780945 17.09C0.878015 17.5723 1.14369 18.0043 1.53034 18.3084C1.91699 18.6126 2.39935 18.7692 2.89095 18.75H16.6709C17.1625 18.7692 17.6449 18.6126 18.0316 18.3084C18.4182 18.0043 18.6839 17.5723 18.7809 17.09C18.854 16.6794 18.7969 16.2562 18.6176 15.8797C18.4383 15.5031 18.1458 15.1921 17.7809 14.99C17.4761 14.8236 17.2221 14.5776 17.046 14.2782C16.8699 13.9788 16.7783 13.6373 16.7809 13.29V13.29Z" stroke="var(--stroke-0, black)" stroke-width="1.5" stroke-linecap="round" stroke-linejoin="round"/>
<path id="Vector_3" d="M11.7809 2.75C11.7809 2.85 11.7809 2.95 11.7809 3.05C11.2047 2.8668 10.6054 2.7658 10.0009 2.75C9.25757 2.72948 8.51548 2.82392 7.80095 3.03C7.78896 2.93712 7.78228 2.84364 7.78095 2.75C7.78095 2.21957 7.99166 1.71086 8.36673 1.33579C8.74181 0.960714 9.25051 0.75 9.78095 0.75C10.3114 0.75 10.8201 0.960714 11.1952 1.33579C11.5702 1.71086 11.7809 2.21957 11.7809 2.75V2.75Z" stroke="var(--stroke-0, black)" stroke-width="1.5" stroke-linecap="round" stroke-linejoin="round"/>
</g>
</svg>
