<svg preserveAspectRatio="none" width="100%" height="100%" overflow="visible" style="display: block;" viewBox="0 0 22.0752 23.5" fill="none" xmlns="http://www.w3.org/2000/svg">
<g id="settings">
<path id="Vector" d="M11.0238 14.75C12.6806 14.75 14.0238 13.4069 14.0238 11.75C14.0238 10.0931 12.6806 8.75 11.0238 8.75C9.36694 8.75 8.0238 10.0931 8.0238 11.75C8.0238 13.4069 9.36694 14.75 11.0238 14.75Z" stroke="var(--stroke-0, black)" stroke-width="1.5" stroke-linecap="round" stroke-linejoin="round"/>
<path id="Vector_2" d="M20.3138 13.65L19.9338 13.43C19.648 13.2545 19.4134 13.0069 19.2536 12.712C19.0939 12.4171 19.0146 12.0853 19.0238 11.75V11.75C19.0255 11.4076 19.1192 11.0719 19.2951 10.7781C19.471 10.4843 19.7227 10.2432 20.0238 10.08L20.4038 9.86C20.8465 9.57645 21.1598 9.12997 21.2759 8.61718C21.3919 8.10439 21.3013 7.56653 21.0238 7.12L20.0238 5.38C19.8923 5.15166 19.717 4.95156 19.5079 4.79118C19.2988 4.63081 19.0601 4.51333 18.8055 4.44549C18.5509 4.37766 18.2854 4.36081 18.0243 4.3959C17.7631 4.431 17.5115 4.51735 17.2838 4.65L17.0238 4.84C16.7277 5.01213 16.3913 5.10281 16.0488 5.10281C15.7063 5.10281 15.3699 5.01213 15.0738 4.84C14.773 4.66635 14.5226 4.41734 14.3472 4.1175C14.1719 3.81766 14.0776 3.47733 14.0738 3.13V2.75C14.0738 2.21957 13.8631 1.71086 13.488 1.33579C13.1129 0.960714 12.6042 0.75 12.0738 0.75H10.0238C9.49336 0.75 8.98465 0.960714 8.60958 1.33579C8.23451 1.71086 8.0238 2.21957 8.0238 2.75V3.11C8.01995 3.45733 7.92572 3.79766 7.75038 4.0975C7.57503 4.39734 7.32462 4.64635 7.0238 4.82C6.71976 4.99554 6.37487 5.08795 6.0238 5.08795C5.67272 5.08795 5.32783 4.99554 5.0238 4.82L4.73379 4.65C4.27669 4.39156 3.73628 4.32325 3.22925 4.45983C2.72221 4.59641 2.28924 4.92692 2.02379 5.38L1.02379 7.12C0.893121 7.34784 0.808606 7.59919 0.775075 7.8597C0.741543 8.1202 0.759653 8.38476 0.828369 8.63827C0.897084 8.89177 1.01506 9.12926 1.17556 9.33717C1.33606 9.54508 1.53595 9.71934 1.76379 9.85L2.14379 10.07C2.44488 10.2332 2.69656 10.4743 2.87249 10.7681C3.04842 11.0619 3.14213 11.3976 3.14379 11.74V11.74C3.14213 12.0824 3.04842 12.4181 2.87249 12.7119C2.69656 13.0057 2.44488 13.2468 2.14379 13.41L1.76379 13.63C1.53329 13.7607 1.33104 13.9358 1.16879 14.1453C1.00655 14.3548 0.88755 14.5944 0.818701 14.8502C0.749851 15.1061 0.732528 15.3731 0.767736 15.6357C0.802945 15.8983 0.889983 16.1513 1.02379 16.38L2.02379 18.12C2.15529 18.3483 2.33061 18.5484 2.53968 18.7088C2.74875 18.8692 2.98745 18.9867 3.24207 19.0545C3.49668 19.1223 3.76219 19.1392 4.02334 19.1041C4.28449 19.069 4.53612 18.9826 4.76379 18.85L5.0738 18.67C5.37783 18.4945 5.72272 18.4021 6.0738 18.4021C6.42487 18.4021 6.76976 18.4945 7.0738 18.67V18.67C7.37462 18.8437 7.62503 19.0927 7.80038 19.3925C7.97572 19.6923 8.06995 20.0327 8.0738 20.38V20.75C8.0738 21.2804 8.28451 21.7891 8.65958 22.1642C9.03465 22.5393 9.54336 22.75 10.0738 22.75H12.0738C12.6042 22.75 13.1129 22.5393 13.488 22.1642C13.8631 21.7891 14.0738 21.2804 14.0738 20.75V20.38C14.0811 20.0361 14.1769 19.6999 14.3521 19.4038C14.5273 19.1078 14.7758 18.8619 15.0738 18.69C15.3778 18.5145 15.7227 18.4221 16.0738 18.4221C16.4249 18.4221 16.7698 18.5145 17.0738 18.69L17.3838 18.87C17.8365 19.1053 18.362 19.1587 18.8527 19.0193C19.3435 18.8799 19.7624 18.5581 20.0238 18.12L21.0238 16.38C21.2902 15.9235 21.3651 15.3801 21.232 14.8685C21.099 14.357 20.7689 13.9189 20.3138 13.65Z" stroke="var(--stroke-0, black)" stroke-width="1.5" stroke-linecap="round" stroke-linejoin="round"/>
</g>
</svg>
