<svg preserveAspectRatio="none" width="100%" height="100%" overflow="visible" style="display: block;" viewBox="0 0 27.5 23.5266" fill="none" xmlns="http://www.w3.org/2000/svg">
<g id="chat">
<path id="Vector" d="M22.75 0.75H4.75C3.68913 0.75 2.67172 1.17143 1.92157 1.92157C1.17143 2.67172 0.75 3.68913 0.75 4.75V14.75C0.75 15.8109 1.17143 16.8283 1.92157 17.5784C2.67172 18.3286 3.68913 18.75 4.75 18.75H4.93C5.19391 18.7498 5.45526 18.8018 5.69897 18.9031C5.94268 19.0043 6.16394 19.1528 6.35 19.34L9.18 22.19C9.36575 22.376 9.58632 22.5235 9.82912 22.6241C10.0719 22.7248 10.3322 22.7766 10.595 22.7766C10.8578 22.7766 11.1181 22.7248 11.3609 22.6241C11.6037 22.5235 11.8243 22.376 12.01 22.19L14.83 19.34C15.0172 19.1516 15.2401 19.0024 15.4856 18.9011C15.7312 18.7998 15.9944 18.7485 16.26 18.75H22.75C23.8109 18.75 24.8283 18.3286 25.5784 17.5784C26.3286 16.8283 26.75 15.8109 26.75 14.75V4.75C26.75 3.68913 26.3286 2.67172 25.5784 1.92157C24.8283 1.17143 23.8109 0.75 22.75 0.75Z" stroke="var(--stroke-0, black)" stroke-width="1.5" stroke-linecap="round" stroke-linejoin="round"/>
</g>
</svg>
