<svg preserveAspectRatio="none" width="100%" height="100%" overflow="visible" style="display: block;" viewBox="0 0 24.548 23.5" fill="none" xmlns="http://www.w3.org/2000/svg">
<g id="business target">
<path id="Vector" d="M11.748 12.75C12.3002 12.75 12.748 12.3023 12.748 11.75C12.748 11.1977 12.3002 10.75 11.748 10.75C11.1957 10.75 10.748 11.1977 10.748 11.75C10.748 12.3023 11.1957 12.75 11.748 12.75Z" stroke="var(--stroke-0, black)" stroke-width="1.5" stroke-linecap="round" stroke-linejoin="round"/>
<path id="Vector_2" d="M11.748 11.75H21.748" stroke="var(--stroke-0, black)" stroke-width="1.5" stroke-linecap="round" stroke-linejoin="round"/>
<path id="Vector_3" d="M23.678 13.68L21.748 11.75L23.798 9.70001" stroke="var(--stroke-0, black)" stroke-width="1.5" stroke-linecap="round" stroke-linejoin="round"/>
<path id="Vector_4" d="M21.548 16.75C20.4251 18.9503 18.5944 20.7086 16.3506 21.7417C14.1068 22.7749 11.5806 23.0227 9.17877 22.4453C6.77698 21.8679 4.63945 20.4988 3.11045 18.5587C1.58146 16.6186 0.75 14.2202 0.75 11.75C0.75 9.27979 1.58146 6.88147 3.11045 4.94132C4.63945 3.00118 6.77698 1.63215 9.17877 1.05474C11.5806 0.477331 14.1068 0.72515 16.3506 1.75828C18.5944 2.79142 20.4251 4.54973 21.548 6.75001" stroke="var(--stroke-0, black)" stroke-width="1.5" stroke-linecap="round" stroke-linejoin="round"/>
<path id="Vector_5" d="M16.218 15.75C15.4079 16.6557 14.3418 17.2941 13.161 17.5807C11.9801 17.8673 10.7401 17.7886 9.60489 17.355C8.46973 16.9215 7.49298 16.1534 6.80388 15.1525C6.11478 14.1517 5.74582 12.9652 5.74582 11.75C5.74582 10.5349 6.11478 9.34835 6.80388 8.34748C7.49298 7.34661 8.46973 6.57857 9.60489 6.14498C10.7401 5.71138 11.9801 5.63268 13.161 5.91929C14.3418 6.20589 15.4079 6.84429 16.218 7.75001" stroke="var(--stroke-0, black)" stroke-width="1.5" stroke-linecap="round" stroke-linejoin="round"/>
</g>
</svg>
