<svg preserveAspectRatio="none" width="100%" height="100%" overflow="visible" style="display: block;" viewBox="0 0 15.5 23.4956" fill="none" xmlns="http://www.w3.org/2000/svg">
<g id="employee">
<path id="Vector" d="M0.750006 19.54V18.75C0.750006 17.6891 1.17143 16.6717 1.92158 15.9216C2.67172 15.1714 3.68914 14.75 4.75001 14.75H10.75C11.8109 14.75 12.8283 15.1714 13.5784 15.9216C14.3286 16.6717 14.75 17.6891 14.75 18.75V19.54C14.751 19.9225 14.6422 20.2973 14.4366 20.6199C14.231 20.9425 13.9372 21.1993 13.59 21.36C11.7781 22.2711 9.7781 22.7456 7.75001 22.7456C5.72191 22.7456 3.72194 22.2711 1.91001 21.36C1.56285 21.1993 1.26904 20.9425 1.06344 20.6199C0.857838 20.2973 0.74906 19.9225 0.750006 19.54Z" stroke="var(--stroke-0, black)" stroke-width="1.5" stroke-linecap="round" stroke-linejoin="round"/>
<path id="Vector_2" d="M10.75 14.75L9.54001 17.17C9.37413 17.5028 9.11876 17.7828 8.80256 17.9785C8.48636 18.1742 8.12187 18.2779 7.75001 18.2779C7.37815 18.2779 7.01365 18.1742 6.69745 17.9785C6.38126 17.7828 6.12588 17.5028 5.96001 17.17L4.75001 14.75H10.75Z" stroke="var(--stroke-0, black)" stroke-width="1.5" stroke-linecap="round" stroke-linejoin="round"/>
<path id="Vector_3" d="M11.75 4.75C11.75 2.54086 9.95914 0.75 7.75001 0.75C5.54087 0.75 3.75001 2.54086 3.75001 4.75V6.75C3.75001 8.95914 5.54087 10.75 7.75001 10.75C9.95914 10.75 11.75 8.95914 11.75 6.75V4.75Z" stroke="var(--stroke-0, black)" stroke-width="1.5" stroke-linecap="round" stroke-linejoin="round"/>
</g>
</svg>
