<svg width="32" height="32" viewBox="0 0 32 32" fill="none" xmlns="http://www.w3.org/2000/svg">
<rect width="32" height="32" fill="#E5E5E5"/>
<g id="Magicons">
<rect x="-560" y="-688" width="704" height="7322" rx="8" fill="url(#paint0_linear_403_422)"/>
<g id="Flat/Arrow/arrow-up-2">
<g id="arrow up 2">
<path id="Vector" d="M24.49 20.41C24.3584 20.4108 24.228 20.3855 24.1061 20.3358C23.9843 20.286 23.8735 20.2127 23.78 20.12L18.12 14.46C17.5478 13.917 16.7889 13.6143 16 13.6143C15.2111 13.6143 14.4523 13.917 13.88 14.46L8.22004 20.12C8.02874 20.2838 7.78266 20.3694 7.53098 20.3597C7.27931 20.35 7.04057 20.2457 6.86247 20.0676C6.68438 19.8895 6.58005 19.6507 6.57033 19.399C6.5606 19.1474 6.64621 18.9013 6.81004 18.71L12.46 13.05C12.9245 12.5844 13.4762 12.2149 14.0837 11.9629C14.6912 11.7108 15.3424 11.5811 16 11.5811C16.6577 11.5811 17.3089 11.7108 17.9164 11.9629C18.5238 12.2149 19.0756 12.5844 19.54 13.05L25.19 18.71C25.3763 18.8974 25.4808 19.1508 25.4808 19.415C25.4808 19.6792 25.3763 19.9326 25.19 20.12C25.0038 20.3047 24.7524 20.4089 24.49 20.41Z" fill="#5233FF"/>
</g>
</g>
</g>
<defs>
<linearGradient id="paint0_linear_403_422" x1="-208" y1="-688" x2="-208" y2="6634" gradientUnits="userSpaceOnUse">
<stop stop-color="#FDFDFD"/>
<stop offset="0.0677083" stop-color="white"/>
<stop offset="1" stop-color="white"/>
</linearGradient>
</defs>
</svg>
