<svg width="32" height="32" viewBox="0 0 32 32" fill="none" xmlns="http://www.w3.org/2000/svg">
<rect width="32" height="32" fill="#E5E5E5"/>
<g id="Magicons">
<rect x="-624" y="-688" width="704" height="7322" rx="8" fill="url(#paint0_linear_403_422)"/>
<g id="Flat/Arrow/arrow-down-2">
<g id="arrow down 2">
<path id="Vector" d="M16 20.41C14.6802 20.4257 13.4077 19.9189 12.46 19L6.81004 13.29C6.64621 13.0987 6.5606 12.8526 6.57033 12.601C6.58005 12.3493 6.68438 12.1105 6.86247 11.9325C7.04057 11.7544 7.27931 11.65 7.53098 11.6403C7.78266 11.6306 8.02874 11.7162 8.22004 11.88L13.88 17.54C14.4523 18.083 15.2111 18.3857 16 18.3857C16.7889 18.3857 17.5478 18.083 18.12 17.54L23.78 11.88C23.9713 11.7162 24.2174 11.6306 24.4691 11.6403C24.7208 11.65 24.9595 11.7544 25.1376 11.9325C25.3157 12.1105 25.42 12.3493 25.4297 12.601C25.4395 12.8526 25.3539 13.0987 25.19 13.29L19.54 19C18.5924 19.9189 17.3199 20.4257 16 20.41Z" fill="#5233FF"/>
</g>
</g>
</g>
<defs>
<linearGradient id="paint0_linear_403_422" x1="-272" y1="-688" x2="-272" y2="6634" gradientUnits="userSpaceOnUse">
<stop stop-color="#FDFDFD"/>
<stop offset="0.0677083" stop-color="white"/>
<stop offset="1" stop-color="white"/>
</linearGradient>
</defs>
</svg>
