<svg width="32" height="32" viewBox="0 0 32 32" fill="none" xmlns="http://www.w3.org/2000/svg">
<rect width="32" height="32" fill="#E5E5E5"/>
<g id="Magicons">
<rect x="-304" y="-1712" width="704" height="7322" rx="8" fill="url(#paint0_linear_403_422)"/>
<g id="Flat/Communication/call">
<g id="call">
<path id="Vector" d="M27.92 20.36C27.776 19.5651 27.4415 18.8169 26.9451 18.1795C26.4488 17.5421 25.8054 17.0345 25.07 16.7L23.81 16.12C23.2532 15.8657 22.6318 15.7878 22.0294 15.8969C21.427 16.0059 20.8724 16.2966 20.44 16.73L19.59 17.59C19.4254 17.7548 19.2085 17.8569 18.9766 17.8788C18.7448 17.9007 18.5126 17.841 18.32 17.71L17.44 17.13C16.238 16.3378 15.2019 15.3188 14.39 14.13L13.8 13.25C13.6703 13.0564 13.6123 12.8235 13.636 12.5916C13.6597 12.3597 13.7637 12.1434 13.93 11.98L14.75 11.16C15.1809 10.7304 15.471 10.1799 15.5817 9.58156C15.6924 8.98324 15.6186 8.3654 15.37 7.81001L14.81 6.50001C14.4797 5.7597 13.9744 5.1108 13.3375 4.60922C12.7007 4.10764 11.9514 3.76843 11.1543 3.62082C10.3572 3.47321 9.53617 3.52162 8.76194 3.76189C7.98771 4.00215 7.28351 4.42707 6.71002 5.00001L6.16002 5.55001C4.5577 7.17312 3.6257 9.34033 3.54972 11.6198C3.47373 13.8993 4.25934 16.1238 5.75002 17.85C8.20642 20.719 10.8811 23.3936 13.75 25.85C15.4759 27.3313 17.6987 28.1043 19.9714 28.0134C22.244 27.9225 24.3979 26.9745 26 25.36L26.57 24.78C27.1341 24.2062 27.5513 23.5048 27.7863 22.7353C28.0214 21.9659 28.0672 21.151 27.92 20.36Z" fill="#5233FF"/>
</g>
</g>
</g>
<defs>
<linearGradient id="paint0_linear_403_422" x1="48" y1="-1712" x2="48" y2="5610" gradientUnits="userSpaceOnUse">
<stop stop-color="#FDFDFD"/>
<stop offset="0.0677083" stop-color="white"/>
<stop offset="1" stop-color="white"/>
</linearGradient>
</defs>
</svg>
