<svg width="32" height="32" viewBox="0 0 32 32" fill="none" xmlns="http://www.w3.org/2000/svg">
<rect width="32" height="32" fill="#E5E5E5"/>
<g id="Magicons">
<rect width="704" height="7322" transform="translate(-560 -6384)" fill="url(#paint0_linear_403_422)"/>
<g id="Outline/User Interface/love">
<g id="love">
<path id="Vector" d="M26.05 8.11C25.0163 7.00941 23.6544 6.27258 22.1675 6.00946C20.6807 5.74633 19.1486 5.97102 17.8 6.65C17.2417 6.93134 16.6252 7.07788 16 7.07788C15.3748 7.07788 14.7583 6.93134 14.2 6.65C12.8571 5.98302 11.3354 5.76489 9.85922 6.02773C8.38299 6.29057 7.03018 7.02049 5.99999 8.11C4.74948 9.49717 4.0878 11.3165 4.15499 13.1829C4.22218 15.0493 5.01297 16.8163 6.35999 18.11L13.22 24.97C13.5915 25.3419 14.0326 25.6369 14.5182 25.8382C15.0038 26.0395 15.5243 26.1431 16.05 26.1431C16.5756 26.1431 17.0962 26.0395 17.5817 25.8382C18.0673 25.6369 18.5085 25.3419 18.88 24.97L25.74 18.11C27.08 16.8097 27.8617 15.0391 27.9195 13.1728C27.9774 11.3064 27.3069 9.49081 26.05 8.11V8.11Z" stroke="black" stroke-width="1.5" stroke-linecap="round" stroke-linejoin="round"/>
</g>
</g>
</g>
<defs>
<linearGradient id="paint0_linear_403_422" x1="352" y1="0" x2="352" y2="7322" gradientUnits="userSpaceOnUse">
<stop stop-color="#FDFDFD"/>
<stop offset="0.0677083" stop-color="white"/>
<stop offset="1" stop-color="white"/>
</linearGradient>
</defs>
</svg>
