<svg width="32" height="32" viewBox="0 0 32 32" fill="none" xmlns="http://www.w3.org/2000/svg">
<rect width="32" height="32" fill="#E5E5E5"/>
<g id="Magicons">
<rect x="-48" y="-1136" width="704" height="7322" rx="8" fill="url(#paint0_linear_403_422)"/>
<g id="Flat/Business/idea">
<g id="idea">
<path id="Vector" d="M21 26V27C21 27.7956 20.6839 28.5587 20.1213 29.1213C19.5587 29.6839 18.7956 30 18 30H14C13.2044 30 12.4413 29.6839 11.8787 29.1213C11.3161 28.5587 11 27.7956 11 27V26H21Z" fill="#FF64C8"/>
<path id="Vector_2" d="M26 12C26.0034 13.513 25.661 15.0068 24.999 16.3673C24.3369 17.7278 23.3728 18.919 22.18 19.85C21.8138 20.1295 21.5169 20.4895 21.3123 20.9023C21.1076 21.315 21.0008 21.7693 21 22.23V24H17V17.82C17.5836 17.6137 18.089 17.2319 18.4471 16.727C18.8052 16.2222 18.9983 15.6189 19 15V13C19 12.2043 18.684 11.4413 18.1214 10.8787C17.5588 10.316 16.7957 9.99998 16 9.99998C15.2044 9.99998 14.4413 10.316 13.8787 10.8787C13.3161 11.4413 13 12.2043 13 13V15C13.0018 15.6189 13.1949 16.2222 13.553 16.727C13.911 17.2319 14.4165 17.6137 15 17.82V24H11V22.23C11.0048 21.7851 10.9083 21.345 10.7177 20.9431C10.5271 20.5411 10.2475 20.1878 9.90005 19.91C8.68346 18.9821 7.69826 17.7851 7.02164 16.4127C6.34502 15.0404 5.99536 13.53 6.00005 12C6.01869 9.40667 7.03613 6.92032 8.84083 5.05789C10.6455 3.19546 13.0986 2.10025 15.69 1.99998C17.0366 1.94494 18.3801 2.16682 19.6375 2.65188C20.8949 3.13693 22.0393 3.87485 23 4.81998C23.9582 5.75278 24.7179 6.86967 25.2335 8.10354C25.749 9.33741 26.0098 10.6628 26 12Z" fill="#5233FF"/>
<path id="Vector_3" d="M17 13V15C17 15.2652 16.8946 15.5196 16.7071 15.7071C16.5196 15.8946 16.2652 16 16 16C15.7348 16 15.4804 15.8946 15.2929 15.7071C15.1054 15.5196 15 15.2652 15 15V13C15 12.7348 15.1054 12.4804 15.2929 12.2929C15.4804 12.1054 15.7348 12 16 12C16.2652 12 16.5196 12.1054 16.7071 12.2929C16.8946 12.4804 17 12.7348 17 13Z" fill="#FF64C8"/>
</g>
</g>
</g>
<defs>
<linearGradient id="paint0_linear_403_422" x1="304" y1="-1136" x2="304" y2="6186" gradientUnits="userSpaceOnUse">
<stop stop-color="#FDFDFD"/>
<stop offset="0.0677083" stop-color="white"/>
<stop offset="1" stop-color="white"/>
</linearGradient>
</defs>
</svg>
