<svg width="32" height="32" viewBox="0 0 32 32" fill="none" xmlns="http://www.w3.org/2000/svg">
<rect width="32" height="32" fill="#E5E5E5"/>
<g id="Magicons">
<rect width="704" height="7322" transform="translate(-432 -6320)" fill="url(#paint0_linear_403_422)"/>
<g id="Outline/User Interface/grid">
<g id="grid">
<path id="Vector" d="M12 6H8C6.89543 6 6 6.89543 6 8V12C6 13.1046 6.89543 14 8 14H12C13.1046 14 14 13.1046 14 12V8C14 6.89543 13.1046 6 12 6Z" stroke="black" stroke-width="1.5" stroke-linecap="round" stroke-linejoin="round"/>
<path id="Vector_2" d="M24 6H20C18.8954 6 18 6.89543 18 8V12C18 13.1046 18.8954 14 20 14H24C25.1046 14 26 13.1046 26 12V8C26 6.89543 25.1046 6 24 6Z" stroke="black" stroke-width="1.5" stroke-linecap="round" stroke-linejoin="round"/>
<path id="Vector_3" d="M12 18H8C6.89543 18 6 18.8954 6 20V24C6 25.1046 6.89543 26 8 26H12C13.1046 26 14 25.1046 14 24V20C14 18.8954 13.1046 18 12 18Z" stroke="black" stroke-width="1.5" stroke-linecap="round" stroke-linejoin="round"/>
<path id="Vector_4" d="M24 18H20C18.8954 18 18 18.8954 18 20V24C18 25.1046 18.8954 26 20 26H24C25.1046 26 26 25.1046 26 24V20C26 18.8954 25.1046 18 24 18Z" stroke="black" stroke-width="1.5" stroke-linecap="round" stroke-linejoin="round"/>
</g>
</g>
</g>
<defs>
<linearGradient id="paint0_linear_403_422" x1="352" y1="0" x2="352" y2="7322" gradientUnits="userSpaceOnUse">
<stop stop-color="#FDFDFD"/>
<stop offset="0.0677083" stop-color="white"/>
<stop offset="1" stop-color="white"/>
</linearGradient>
</defs>
</svg>
