<svg preserveAspectRatio="none" width="100%" height="100%" overflow="visible" style="display: block;" viewBox="0 0 983 153" fill="none" xmlns="http://www.w3.org/2000/svg">
<path id="Union" d="M747 34C747 40.6274 752.373 46 759 46H929C935.627 46 941 51.3726 941 58V84C941 90.6274 946.373 96 953 96H971C977.627 96 983 101.373 983 108V141C983 147.627 977.627 153 971 153H12C5.37256 153 0 147.627 0 141V108C0 101.373 5.37258 96 12 96H37C43.6274 96 49 90.6274 49 84V58C49 51.3726 54.3726 46 61 46H231C237.627 46 243 40.6274 243 34V12C243 5.37258 248.373 0 255 0H735C741.627 0 747 5.37258 747 12V34Z" fill="var(--fill-0, black)"/>
</svg>
