<svg preserveAspectRatio="none" width="100%" height="100%" overflow="visible" style="display: block;" viewBox="0 0 174.649 174.649" fill="none" xmlns="http://www.w3.org/2000/svg">
<foreignObject x="0" y="-3" width="174.649" height="177.649"><div xmlns="http://www.w3.org/1999/xhtml" style="backdrop-filter:blur(7.5px);clip-path:url(#bgblur_0_0_29_clip_path);height:100%;width:100%"></div></foreignObject><g id="shape" filter="url(#filter0_d_0_29)" data-figma-bg-blur-radius="15">
<path fill-rule="evenodd" clip-rule="evenodd" d="M132.097 30.5472C127.397 25.8475 116.689 28.1714 103.768 35.6205C99.8987 21.2159 93.9697 12 87.3231 12C80.6768 12 74.7479 21.2153 70.8787 35.6192C57.9584 28.1707 47.2505 25.8472 42.551 30.5467C37.851 35.2467 40.1755 45.9563 47.6258 58.8784C33.2181 62.7475 24 68.6772 24 75.3246C24 81.9707 33.2149 87.8995 47.6182 91.7687C40.1673 104.691 37.8426 115.401 42.5427 120.102C47.243 124.802 57.954 122.477 70.8774 115.025C74.7466 129.432 80.676 138.649 87.3231 138.649C93.9704 138.649 99.9 129.431 103.769 115.024C116.693 122.476 127.405 124.802 132.105 120.101C136.805 115.401 134.481 104.691 127.03 91.7688C141.434 87.8997 150.649 81.9708 150.649 75.3246C150.649 68.6771 141.431 62.7474 127.023 58.8783C134.473 45.9564 136.797 35.2471 132.097 30.5472Z" fill="var(--fill-0, black)" fill-opacity="0.1" shape-rendering="crispEdges"/>
</g>
<defs>
<filter id="filter0_d_0_29" x="0" y="-3" width="174.649" height="177.649" filterUnits="userSpaceOnUse" color-interpolation-filters="sRGB">
<feFlood flood-opacity="0" result="BackgroundImageFix"/>
<feColorMatrix in="SourceAlpha" type="matrix" values="0 0 0 0 0 0 0 0 0 0 0 0 0 0 0 0 0 0 127 0" result="hardAlpha"/>
<feMorphology radius="8" operator="erode" in="SourceAlpha" result="effect1_dropShadow_0_29"/>
<feOffset dy="12"/>
<feGaussianBlur stdDeviation="16"/>
<feComposite in2="hardAlpha" operator="out"/>
<feColorMatrix type="matrix" values="0 0 0 0 1 0 0 0 0 1 0 0 0 0 1 0 0 0 0.1 0"/>
<feBlend mode="normal" in2="BackgroundImageFix" result="effect1_dropShadow_0_29"/>
<feBlend mode="normal" in="SourceGraphic" in2="effect1_dropShadow_0_29" result="shape"/>
</filter>
<clipPath id="bgblur_0_0_29_clip_path" transform="translate(0 3)"><path fill-rule="evenodd" clip-rule="evenodd" d="M132.097 30.5472C127.397 25.8475 116.689 28.1714 103.768 35.6205C99.8987 21.2159 93.9697 12 87.3231 12C80.6768 12 74.7479 21.2153 70.8787 35.6192C57.9584 28.1707 47.2505 25.8472 42.551 30.5467C37.851 35.2467 40.1755 45.9563 47.6258 58.8784C33.2181 62.7475 24 68.6772 24 75.3246C24 81.9707 33.2149 87.8995 47.6182 91.7687C40.1673 104.691 37.8426 115.401 42.5427 120.102C47.243 124.802 57.954 122.477 70.8774 115.025C74.7466 129.432 80.676 138.649 87.3231 138.649C93.9704 138.649 99.9 129.431 103.769 115.024C116.693 122.476 127.405 124.802 132.105 120.101C136.805 115.401 134.481 104.691 127.03 91.7688C141.434 87.8997 150.649 81.9708 150.649 75.3246C150.649 68.6771 141.431 62.7474 127.023 58.8783C134.473 45.9564 136.797 35.2471 132.097 30.5472Z"/>
</clipPath></defs>
</svg>
