<svg preserveAspectRatio="none" width="100%" height="100%" overflow="visible" style="display: block;" viewBox="0 0 215.099 215.099" fill="none" xmlns="http://www.w3.org/2000/svg">
<foreignObject x="0" y="-3" width="215.099" height="218.099"><div xmlns="http://www.w3.org/1999/xhtml" style="backdrop-filter:blur(7.5px);clip-path:url(#bgblur_0_0_24_clip_path);height:100%;width:100%"></div></foreignObject><g id="Vector" filter="url(#filter0_d_0_24)" data-figma-bg-blur-radius="15">
<path d="M191.099 12C191.099 35.0715 172.396 53.7749 149.325 53.7749C172.396 53.7749 191.099 72.4783 191.099 95.5497C191.099 118.621 172.396 137.325 149.325 137.325C172.396 137.325 191.099 156.028 191.099 179.099H24C24 156.028 42.7034 137.325 65.7749 137.325C42.7034 137.325 24 118.621 24 95.5497C24 72.4783 42.7034 53.7749 65.7749 53.7749C42.7034 53.7749 24 35.0715 24 12H191.099Z" fill="var(--fill-0, black)" fill-opacity="0.1" shape-rendering="crispEdges"/>
</g>
<defs>
<filter id="filter0_d_0_24" x="0" y="-3" width="215.099" height="218.099" filterUnits="userSpaceOnUse" color-interpolation-filters="sRGB">
<feFlood flood-opacity="0" result="BackgroundImageFix"/>
<feColorMatrix in="SourceAlpha" type="matrix" values="0 0 0 0 0 0 0 0 0 0 0 0 0 0 0 0 0 0 127 0" result="hardAlpha"/>
<feMorphology radius="8" operator="erode" in="SourceAlpha" result="effect1_dropShadow_0_24"/>
<feOffset dy="12"/>
<feGaussianBlur stdDeviation="16"/>
<feComposite in2="hardAlpha" operator="out"/>
<feColorMatrix type="matrix" values="0 0 0 0 1 0 0 0 0 1 0 0 0 0 1 0 0 0 0.1 0"/>
<feBlend mode="normal" in2="BackgroundImageFix" result="effect1_dropShadow_0_24"/>
<feBlend mode="normal" in="SourceGraphic" in2="effect1_dropShadow_0_24" result="shape"/>
</filter>
<clipPath id="bgblur_0_0_24_clip_path" transform="translate(0 3)"><path d="M191.099 12C191.099 35.0715 172.396 53.7749 149.325 53.7749C172.396 53.7749 191.099 72.4783 191.099 95.5497C191.099 118.621 172.396 137.325 149.325 137.325C172.396 137.325 191.099 156.028 191.099 179.099H24C24 156.028 42.7034 137.325 65.7749 137.325C42.7034 137.325 24 118.621 24 95.5497C24 72.4783 42.7034 53.7749 65.7749 53.7749C42.7034 53.7749 24 35.0715 24 12H191.099Z"/>
</clipPath></defs>
</svg>
