<svg preserveAspectRatio="none" width="100%" height="100%" overflow="visible" style="display: block;" viewBox="0 0 27.5 27.5" fill="none" xmlns="http://www.w3.org/2000/svg">
<g id="business strategy">
<path id="Vector" d="M7.75 11.75C9.40685 11.75 10.75 10.4069 10.75 8.75C10.75 7.09315 9.40685 5.75 7.75 5.75C6.09315 5.75 4.75 7.09315 4.75 8.75C4.75 10.4069 6.09315 11.75 7.75 11.75Z" stroke="var(--stroke-0, black)" stroke-width="1.5" stroke-linecap="round" stroke-linejoin="round"/>
<path id="Vector_2" d="M15.75 15.75L21.75 21.75" stroke="var(--stroke-0, black)" stroke-width="1.5" stroke-linecap="round" stroke-linejoin="round"/>
<path id="Vector_3" d="M21.75 15.75L15.75 21.75" stroke="var(--stroke-0, black)" stroke-width="1.5" stroke-linecap="round" stroke-linejoin="round"/>
<path id="Vector_4" d="M11.75 21.75H8.75C8.33254 21.7268 7.94132 21.539 7.66204 21.2278C7.38275 20.9167 7.23818 20.5075 7.26 20.09V16.75" stroke="var(--stroke-0, black)" stroke-width="1.5" stroke-linecap="round" stroke-linejoin="round"/>
<path id="Vector_5" d="M5.77 17.51L7.36 15.75L8.94 17.51" stroke="var(--stroke-0, black)" stroke-width="1.5" stroke-linecap="round" stroke-linejoin="round"/>
<path id="Vector_6" d="M15.75 5.75H18.75C19.1675 5.77325 19.5587 5.96101 19.838 6.27216C20.1172 6.5833 20.2618 6.99246 20.24 7.41V10.75" stroke="var(--stroke-0, black)" stroke-width="1.5" stroke-linecap="round" stroke-linejoin="round"/>
<path id="Vector_7" d="M21.73 9.99L20.14 11.75L18.56 9.99" stroke="var(--stroke-0, black)" stroke-width="1.5" stroke-linecap="round" stroke-linejoin="round"/>
<path id="Vector_8" d="M20.75 0.75H6.75C3.43629 0.75 0.75 3.43629 0.75 6.75V20.75C0.75 24.0637 3.43629 26.75 6.75 26.75H20.75C24.0637 26.75 26.75 24.0637 26.75 20.75V6.75C26.75 3.43629 24.0637 0.75 20.75 0.75Z" stroke="var(--stroke-0, black)" stroke-width="1.5" stroke-linecap="round" stroke-linejoin="round"/>
</g>
</svg>
