<svg preserveAspectRatio="none" width="100%" height="100%" overflow="visible" style="display: block;" viewBox="0 0 23.5 27.5" fill="none" xmlns="http://www.w3.org/2000/svg">
<g id="document">
<path id="Vector" d="M4.75 0.75H14.75C16.0285 0.750171 17.2547 1.25722 18.16 2.16L21.34 5.34C22.2428 6.24526 22.7498 7.47152 22.75 8.75V22.75C22.75 23.8109 22.3286 24.8283 21.5784 25.5784C20.8283 26.3286 19.8109 26.75 18.75 26.75H4.75C3.68913 26.75 2.67172 26.3286 1.92157 25.5784C1.17143 24.8283 0.75 23.8109 0.75 22.75V4.75C0.75 3.68913 1.17143 2.67172 1.92157 1.92157C2.67172 1.17143 3.68913 0.75 4.75 0.75V0.75Z" stroke="var(--stroke-0, black)" stroke-width="1.5" stroke-linecap="round" stroke-linejoin="round"/>
<path id="Vector_2" d="M14.75 6.75V0.75C16.0285 0.750171 17.2547 1.25722 18.16 2.16L21.34 5.34C22.2428 6.24526 22.7498 7.47152 22.75 8.75H16.75C16.2196 8.75 15.7109 8.53929 15.3358 8.16421C14.9607 7.78914 14.75 7.28043 14.75 6.75Z" stroke="var(--stroke-0, black)" stroke-width="1.5" stroke-linecap="round" stroke-linejoin="round"/>
<path id="Vector_3" d="M4.75 13.75H16.75" stroke="var(--stroke-0, black)" stroke-width="1.5" stroke-linecap="round" stroke-linejoin="round"/>
<path id="Vector_4" d="M4.75 19.75H16.75" stroke="var(--stroke-0, black)" stroke-width="1.5" stroke-linecap="round" stroke-linejoin="round"/>
<path id="Vector_5" d="M4.75 7.75H10.75" stroke="var(--stroke-0, black)" stroke-width="1.5" stroke-linecap="round" stroke-linejoin="round"/>
</g>
</svg>
