<svg preserveAspectRatio="none" width="100%" height="100%" overflow="visible" style="display: block;" viewBox="0 0 21.5945 21.4994" fill="none" xmlns="http://www.w3.org/2000/svg">
<g id="edit">
<path id="Vector" d="M19.678 7.46145L7.678 19.4614C7.40189 19.7317 7.05537 19.9188 6.678 20.0014L3.138 20.7114C2.81571 20.7752 2.48269 20.7585 2.16837 20.663C1.85404 20.5675 1.56809 20.396 1.33579 20.1637C1.10348 19.9314 0.931984 19.6454 0.836443 19.3311C0.740902 19.0168 0.724263 18.6837 0.787996 18.3615L1.488 14.8514C1.57067 14.4741 1.75779 14.1276 2.028 13.8514L13.868 2.00145C14.2546 1.60534 14.7165 1.29056 15.2266 1.07564C15.7366 0.860718 16.2845 0.75 16.838 0.75C17.3915 0.75 17.9394 0.860718 18.4494 1.07564C18.9595 1.29056 19.4214 1.60534 19.808 2.00145C20.4969 2.76139 20.8676 3.75695 20.8434 4.78241C20.8192 5.80787 20.402 6.78485 19.678 7.51145V7.46145Z" stroke="var(--stroke-0, black)" stroke-width="1.5" stroke-linecap="round" stroke-linejoin="round"/>
</g>
</svg>
