<svg preserveAspectRatio="none" width="100%" height="100%" overflow="visible" style="display: block;" viewBox="0 0 21.5 21.5" fill="none" xmlns="http://www.w3.org/2000/svg">
<g id="grid">
<path id="Vector" d="M6.75 0.75H2.75C1.64543 0.75 0.75 1.64543 0.75 2.75V6.75C0.75 7.85457 1.64543 8.75 2.75 8.75H6.75C7.85457 8.75 8.75 7.85457 8.75 6.75V2.75C8.75 1.64543 7.85457 0.75 6.75 0.75Z" stroke="var(--stroke-0, black)" stroke-width="1.5" stroke-linecap="round" stroke-linejoin="round"/>
<path id="Vector_2" d="M18.75 0.75H14.75C13.6454 0.75 12.75 1.64543 12.75 2.75V6.75C12.75 7.85457 13.6454 8.75 14.75 8.75H18.75C19.8546 8.75 20.75 7.85457 20.75 6.75V2.75C20.75 1.64543 19.8546 0.75 18.75 0.75Z" stroke="var(--stroke-0, black)" stroke-width="1.5" stroke-linecap="round" stroke-linejoin="round"/>
<path id="Vector_3" d="M6.75 12.75H2.75C1.64543 12.75 0.75 13.6454 0.75 14.75V18.75C0.75 19.8546 1.64543 20.75 2.75 20.75H6.75C7.85457 20.75 8.75 19.8546 8.75 18.75V14.75C8.75 13.6454 7.85457 12.75 6.75 12.75Z" stroke="var(--stroke-0, black)" stroke-width="1.5" stroke-linecap="round" stroke-linejoin="round"/>
<path id="Vector_4" d="M18.75 12.75H14.75C13.6454 12.75 12.75 13.6454 12.75 14.75V18.75C12.75 19.8546 13.6454 20.75 14.75 20.75H18.75C19.8546 20.75 20.75 19.8546 20.75 18.75V14.75C20.75 13.6454 19.8546 12.75 18.75 12.75Z" stroke="var(--stroke-0, black)" stroke-width="1.5" stroke-linecap="round" stroke-linejoin="round"/>
</g>
</svg>
