<svg preserveAspectRatio="none" width="100%" height="100%" overflow="visible" style="display: block;" viewBox="0 0 19.5 27.5044" fill="none" xmlns="http://www.w3.org/2000/svg">
<g id="idea">
<path id="Vector" d="M5.75004 22.7544H13.75V24.7544C13.75 25.2848 13.5393 25.7935 13.1643 26.1686C12.7892 26.5436 12.2805 26.7544 11.75 26.7544H7.75004C7.21961 26.7544 6.7109 26.5436 6.33583 26.1686C5.96076 25.7935 5.75004 25.2848 5.75004 24.7544V22.7544Z" stroke="var(--stroke-0, black)" stroke-width="1.5" stroke-linecap="round" stroke-linejoin="round"/>
<path id="Vector_2" d="M18.75 9.75436C18.7506 8.54853 18.5089 7.35487 18.0392 6.24428C17.5695 5.13369 16.8814 4.12881 16.0158 3.28932C15.1502 2.44983 14.1247 1.79284 13.0002 1.35737C11.8758 0.921906 10.6753 0.716842 9.47004 0.754357C7.14023 0.851611 4.93665 1.83953 3.31405 3.51423C1.69144 5.18894 0.773639 7.42263 0.750043 9.75436C0.756394 11.1254 1.07592 12.4769 1.68424 13.7057C2.29255 14.9345 3.17357 16.008 4.26004 16.8444C4.73369 17.2174 5.11463 17.695 5.37311 18.2397C5.63159 18.7844 5.76059 19.3815 5.75004 19.9844V22.7544H13.75V19.9844C13.7544 19.3726 13.897 18.7697 14.1671 18.2208C14.4373 17.6718 14.828 17.1911 15.31 16.8144C16.3797 15.974 17.2449 14.9022 17.8407 13.6794C18.4366 12.4566 18.7474 11.1146 18.75 9.75436V9.75436Z" stroke="var(--stroke-0, black)" stroke-width="1.5" stroke-linecap="round" stroke-linejoin="round"/>
<path id="Vector_3" d="M9.75004 22.7544V14.7544" stroke="var(--stroke-0, black)" stroke-width="1.5" stroke-linecap="round" stroke-linejoin="round"/>
<path id="Vector_4" d="M11.75 10.7544C11.75 9.64979 10.8546 8.75436 9.75004 8.75436C8.64547 8.75436 7.75004 9.64979 7.75004 10.7544V12.7544C7.75004 13.8589 8.64547 14.7544 9.75004 14.7544C10.8546 14.7544 11.75 13.8589 11.75 12.7544V10.7544Z" stroke="var(--stroke-0, black)" stroke-width="1.5" stroke-linecap="round" stroke-linejoin="round"/>
</g>
</svg>
