<svg preserveAspectRatio="none" width="100%" height="100%" overflow="visible" style="display: block;" viewBox="0 0 27.5 19.5" fill="none" xmlns="http://www.w3.org/2000/svg">
<g id="line chart">
<path id="Vector" d="M14.77 5.96L21.73 13.54" stroke="var(--stroke-0, black)" stroke-width="1.5" stroke-linecap="round" stroke-linejoin="round"/>
<path id="Vector_2" d="M6.25 8.09L10.25 5.41" stroke="var(--stroke-0, black)" stroke-width="1.5" stroke-linecap="round" stroke-linejoin="round"/>
<path id="Vector_3" d="M12.75 6.75C14.4069 6.75 15.75 5.40685 15.75 3.75C15.75 2.09315 14.4069 0.75 12.75 0.75C11.0931 0.75 9.75 2.09315 9.75 3.75C9.75 5.40685 11.0931 6.75 12.75 6.75Z" stroke="var(--stroke-0, black)" stroke-width="1.5" stroke-linecap="round" stroke-linejoin="round"/>
<path id="Vector_4" d="M3.75 12.75C5.40685 12.75 6.75 11.4069 6.75 9.75C6.75 8.09315 5.40685 6.75 3.75 6.75C2.09315 6.75 0.75 8.09315 0.75 9.75C0.75 11.4069 2.09315 12.75 3.75 12.75Z" stroke="var(--stroke-0, black)" stroke-width="1.5" stroke-linecap="round" stroke-linejoin="round"/>
<path id="Vector_5" d="M23.75 18.75C25.4069 18.75 26.75 17.4069 26.75 15.75C26.75 14.0931 25.4069 12.75 23.75 12.75C22.0931 12.75 20.75 14.0931 20.75 15.75C20.75 17.4069 22.0931 18.75 23.75 18.75Z" stroke="var(--stroke-0, black)" stroke-width="1.5" stroke-linecap="round" stroke-linejoin="round"/>
</g>
</svg>
