<svg preserveAspectRatio="none" width="100%" height="100%" overflow="visible" style="display: block;" viewBox="0 0 19.5 23.5" fill="none" xmlns="http://www.w3.org/2000/svg">
<g id="lock">
<path id="Vector" d="M9.75 0.75C11.0761 0.75 12.3479 1.27678 13.2855 2.21447C14.2232 3.15215 14.75 4.42392 14.75 5.75V10.75H4.75V5.75C4.75 4.42392 5.27678 3.15215 6.21447 2.21447C7.15215 1.27678 8.42392 0.75 9.75 0.75V0.75Z" stroke="var(--stroke-0, black)" stroke-width="1.5" stroke-linecap="round" stroke-linejoin="round"/>
<path id="Vector_2" d="M16.75 10.75H2.75C1.64543 10.75 0.75 11.6454 0.75 12.75V20.75C0.75 21.8546 1.64543 22.75 2.75 22.75H16.75C17.8546 22.75 18.75 21.8546 18.75 20.75V12.75C18.75 11.6454 17.8546 10.75 16.75 10.75Z" stroke="var(--stroke-0, black)" stroke-width="1.5" stroke-linecap="round" stroke-linejoin="round"/>
<path id="Vector_3" d="M9.75 17.75C10.8546 17.75 11.75 16.8546 11.75 15.75C11.75 14.6454 10.8546 13.75 9.75 13.75C8.64543 13.75 7.75 14.6454 7.75 15.75C7.75 16.8546 8.64543 17.75 9.75 17.75Z" fill="var(--fill-0, black)"/>
<path id="Vector_4" d="M9.75 15.75V18.75" stroke="var(--stroke-0, black)" stroke-width="1.5" stroke-linecap="round" stroke-linejoin="round"/>
</g>
</svg>
