<svg preserveAspectRatio="none" width="100%" height="100%" overflow="visible" style="display: block;" viewBox="0 0 23.5 23.2662" fill="none" xmlns="http://www.w3.org/2000/svg">
<g id="receipt">
<path id="Vector" d="M16.92 8.50894H14.42C14.0222 8.50894 13.6406 8.66697 13.3593 8.94828C13.078 9.22958 12.92 9.61111 12.92 10.0089C12.92 10.4068 13.078 10.7883 13.3593 11.0696C13.6406 11.3509 14.0222 11.5089 14.42 11.5089H15.42C15.8178 11.5089 16.1994 11.667 16.4807 11.9483C16.762 12.2296 16.92 12.6111 16.92 13.0089C16.92 13.4068 16.762 13.7883 16.4807 14.0696C16.1994 14.3509 15.8178 14.5089 15.42 14.5089H12.92" stroke="var(--stroke-0, black)" stroke-width="1.5" stroke-linecap="round" stroke-linejoin="round"/>
<path id="Vector_2" d="M14.92 14.5089V15.5089" stroke="var(--stroke-0, black)" stroke-width="1.5" stroke-linecap="round" stroke-linejoin="round"/>
<path id="Vector_3" d="M14.92 7.50894V8.50894" stroke="var(--stroke-0, black)" stroke-width="1.5" stroke-linecap="round" stroke-linejoin="round"/>
<path id="Vector_4" d="M22.75 3.74894V19.5089C22.75 20.3046 22.4339 21.0677 21.8713 21.6303C21.3087 22.1929 20.5456 22.5089 19.75 22.5089H3.91H4.06C4.14974 22.5186 4.24026 22.5186 4.33 22.5089C4.5786 22.4699 4.81872 22.3888 5.04 22.2689C5.53848 22.0318 5.96188 21.6618 6.26358 21.1995C6.56529 20.7372 6.7336 20.2007 6.75 19.6489C6.75496 19.6024 6.75496 19.5555 6.75 19.5089V3.74894C6.75018 3.40853 6.83724 3.07381 7.00294 2.77646C7.16864 2.4791 7.40749 2.22896 7.69689 2.04972C7.98628 1.87048 8.31663 1.76807 8.65666 1.75218C8.9967 1.73629 9.33516 1.80746 9.64 1.95894L9.86 2.06894C10.1366 2.20636 10.4412 2.27788 10.75 2.27788C11.0588 2.27788 11.3634 2.20636 11.64 2.06894L13.86 0.958939C14.1366 0.821514 14.4412 0.75 14.75 0.75C15.0588 0.75 15.3634 0.821514 15.64 0.958939L17.86 2.06894C18.1366 2.20636 18.4412 2.27788 18.75 2.27788C19.0588 2.27788 19.3634 2.20636 19.64 2.06894L19.86 1.95894C20.1648 1.80746 20.5033 1.73629 20.8433 1.75218C21.1834 1.76807 21.5137 1.87048 21.8031 2.04972C22.0925 2.22896 22.3314 2.4791 22.4971 2.77646C22.6628 3.07381 22.7498 3.40853 22.75 3.74894Z" stroke="var(--stroke-0, black)" stroke-width="1.5" stroke-linecap="round" stroke-linejoin="round"/>
<path id="Vector_5" d="M3.75 22.5089H4.06H3.91H3.75Z" stroke="var(--stroke-0, black)" stroke-width="1.5" stroke-linecap="round" stroke-linejoin="round"/>
<path id="Vector_6" d="M2.75 10.5089H6.75V19.5089C6.75 20.3046 6.43393 21.0677 5.87132 21.6303C5.30871 22.1929 4.54565 22.5089 3.75 22.5089C2.95435 22.5089 2.19129 22.1929 1.62868 21.6303C1.06607 21.0677 0.75 20.3046 0.75 19.5089V12.5089C0.75 11.9785 0.960714 11.4698 1.33579 11.0947C1.71086 10.7197 2.21957 10.5089 2.75 10.5089V10.5089Z" stroke="var(--stroke-0, black)" stroke-width="1.5" stroke-linecap="round" stroke-linejoin="round"/>
</g>
</svg>
