<svg preserveAspectRatio="none" width="100%" height="100%" overflow="visible" style="display: block;" viewBox="0 0 26.6204 23.5819" fill="none" xmlns="http://www.w3.org/2000/svg">
<g id="split bill">
<path id="Vector" d="M22.3102 3.83194V14.1619L5.79019 9.75194C5.36401 9.63719 4.98776 9.38469 4.72006 9.03379C4.45236 8.68289 4.30825 8.25329 4.31019 7.81194V3.81194C4.31374 3.47323 4.40327 3.14098 4.57036 2.84633C4.73746 2.55169 4.97665 2.30431 5.26551 2.1274C5.55436 1.95049 5.88342 1.84984 6.22181 1.83489C6.56021 1.81994 6.89686 1.89118 7.20019 2.04194L7.51019 2.19194C7.76643 2.32029 8.04726 2.39207 8.33366 2.40242C8.62007 2.41278 8.90535 2.36145 9.17019 2.25194L12.5702 0.891936C13.0454 0.702688 13.575 0.702688 14.0502 0.891936L17.4802 2.26194C17.7325 2.37206 18.0049 2.42891 18.2802 2.42891C18.5555 2.42891 18.8279 2.37206 19.0802 2.26194L19.4402 2.08194C19.7412 1.93637 20.074 1.86861 20.408 1.88485C20.742 1.90109 21.0665 2.00081 21.352 2.1749C21.6375 2.34898 21.8748 2.59187 22.0422 2.88135C22.2096 3.17083 22.3017 3.49766 22.3102 3.83194Z" stroke="var(--stroke-0, black)" stroke-width="1.5" stroke-linecap="round" stroke-linejoin="round"/>
<path id="Vector_2" d="M11.7902 11.3419C11.6381 11.2042 11.5167 11.0359 11.434 10.8481C11.3513 10.6603 11.3091 10.4572 11.3102 10.2519C11.3102 9.85411 11.4682 9.47258 11.7495 9.19128C12.0308 8.90997 12.4124 8.75194 12.8102 8.75194H15.3102" stroke="var(--stroke-0, black)" stroke-width="1.5" stroke-linecap="round" stroke-linejoin="round"/>
<path id="Vector_3" d="M13.3102 7.75194V8.75194" stroke="var(--stroke-0, black)" stroke-width="1.5" stroke-linecap="round" stroke-linejoin="round"/>
<path id="Vector_4" d="M24.3102 16.2319V18.8319C24.3102 19.8928 23.8888 20.9102 23.1386 21.6604C22.3885 22.4105 21.3711 22.8319 20.3102 22.8319H10.3102C9.24932 22.8319 8.2319 22.4105 7.48176 21.6604C6.73161 20.9102 6.31019 19.8928 6.31019 18.8319V9.88194L22.8302 14.3019C23.2547 14.4162 23.6297 14.6672 23.8973 15.0161C24.1648 15.365 24.3099 15.7923 24.3102 16.2319V16.2319Z" stroke="var(--stroke-0, black)" stroke-width="1.5" stroke-linecap="round" stroke-linejoin="round"/>
<path id="Vector_5" d="M13.3102 14.7519H15.8102C16.208 14.7519 16.5895 14.5939 16.8708 14.3126C17.1521 14.0313 17.3102 13.6498 17.3102 13.2519C17.3147 13.098 17.2875 12.9448 17.2302 12.8019" stroke="var(--stroke-0, black)" stroke-width="1.5" stroke-linecap="round" stroke-linejoin="round"/>
<path id="Vector_6" d="M15.3102 14.7519V15.7519" stroke="var(--stroke-0, black)" stroke-width="1.5" stroke-linecap="round" stroke-linejoin="round"/>
<path id="Vector_7" d="M0.750186 8.39194L25.8702 15.1119" stroke="var(--stroke-0, black)" stroke-width="1.5" stroke-linecap="round" stroke-linejoin="round"/>
</g>
</svg>
