<svg preserveAspectRatio="none" width="100%" height="100%" overflow="visible" style="display: block;" viewBox="0 0 19.5 23.43" fill="none" xmlns="http://www.w3.org/2000/svg">
<g id="user">
<path id="Vector" d="M14.75 5.75C14.75 2.98858 12.5114 0.75 9.75 0.75C6.98858 0.75 4.75 2.98858 4.75 5.75C4.75 8.51142 6.98858 10.75 9.75 10.75C12.5114 10.75 14.75 8.51142 14.75 5.75Z" stroke="var(--stroke-0, black)" stroke-width="1.5" stroke-linecap="round" stroke-linejoin="round"/>
<path id="Vector_2" d="M0.75 20.68C0.75 19.0887 1.38214 17.5626 2.50736 16.4374C3.63258 15.3121 5.1587 14.68 6.75 14.68H12.75C14.3413 14.68 15.8674 15.3121 16.9926 16.4374C18.1179 17.5626 18.75 19.0887 18.75 20.68V20.68C18.75 21.2104 18.5393 21.7191 18.1642 22.0942C17.7891 22.4693 17.2804 22.68 16.75 22.68H2.75C2.21957 22.68 1.71086 22.4693 1.33579 22.0942C0.960714 21.7191 0.75 21.2104 0.75 20.68Z" stroke="var(--stroke-0, black)" stroke-width="1.5" stroke-linecap="round" stroke-linejoin="round"/>
</g>
</svg>
