<svg preserveAspectRatio="none" width="100%" height="100%" overflow="visible" style="display: block;" viewBox="0 0 27.5 21.5" fill="none" xmlns="http://www.w3.org/2000/svg">
<g id="wallet">
<path id="Vector" d="M16.75 8.75V12.75C16.75 13.5456 17.0661 14.3087 17.6287 14.8713C18.1913 15.4339 18.9544 15.75 19.75 15.75H22.75V16.75C22.75 17.8109 22.3286 18.8283 21.5784 19.5784C20.8283 20.3286 19.8109 20.75 18.75 20.75H4.75C3.68913 20.75 2.67172 20.3286 1.92157 19.5784C1.17143 18.8283 0.75 17.8109 0.75 16.75V4.75C0.75 3.68913 1.17143 2.67172 1.92157 1.92157C2.67172 1.17143 3.68913 0.75 4.75 0.75H18.75C19.8109 0.75 20.8283 1.17143 21.5784 1.92157C22.3286 2.67172 22.75 3.68913 22.75 4.75V5.75H19.75C18.9544 5.75 18.1913 6.06607 17.6287 6.62868C17.0661 7.19129 16.75 7.95435 16.75 8.75V8.75Z" stroke="var(--stroke-0, black)" stroke-width="1.5" stroke-linecap="round" stroke-linejoin="round"/>
<path id="Vector_2" d="M23.75 5.75H19.75C18.0931 5.75 16.75 7.09315 16.75 8.75V12.75C16.75 14.4069 18.0931 15.75 19.75 15.75H23.75C25.4069 15.75 26.75 14.4069 26.75 12.75V8.75C26.75 7.09315 25.4069 5.75 23.75 5.75Z" stroke="var(--stroke-0, black)" stroke-width="1.5" stroke-linecap="round" stroke-linejoin="round"/>
</g>
</svg>
