<svg preserveAspectRatio="none" width="100%" height="100%" overflow="visible" style="display: block;" viewBox="0 0 27.5 27.5" fill="none" xmlns="http://www.w3.org/2000/svg">
<g id="workflow">
<path id="Vector" d="M13.75 16.75C15.4069 16.75 16.75 15.4069 16.75 13.75C16.75 12.0931 15.4069 10.75 13.75 10.75C12.0931 10.75 10.75 12.0931 10.75 13.75C10.75 15.4069 12.0931 16.75 13.75 16.75Z" stroke="var(--stroke-0, black)" stroke-width="1.5" stroke-linecap="round" stroke-linejoin="round"/>
<path id="Vector_2" d="M23.75 26.75C25.4069 26.75 26.75 25.4069 26.75 23.75C26.75 22.0931 25.4069 20.75 23.75 20.75C22.0931 20.75 20.75 22.0931 20.75 23.75C20.75 25.4069 22.0931 26.75 23.75 26.75Z" stroke="var(--stroke-0, black)" stroke-width="1.5" stroke-linecap="round" stroke-linejoin="round"/>
<path id="Vector_3" d="M3.75 6.75C5.40685 6.75 6.75 5.40685 6.75 3.75C6.75 2.09315 5.40685 0.75 3.75 0.75C2.09315 0.75 0.75 2.09315 0.75 3.75C0.75 5.40685 2.09315 6.75 3.75 6.75Z" stroke="var(--stroke-0, black)" stroke-width="1.5" stroke-linecap="round" stroke-linejoin="round"/>
<path id="Vector_4" d="M6.75 3.75H19.75C21.0761 3.75 22.3479 4.27678 23.2855 5.21447C24.2232 6.15215 24.75 7.42392 24.75 8.75C24.75 10.0761 24.2232 11.3479 23.2855 12.2855C22.3479 13.2232 21.0761 13.75 19.75 13.75H16.75" stroke="var(--stroke-0, black)" stroke-width="1.5" stroke-linecap="round" stroke-linejoin="round"/>
<path id="Vector_5" d="M20.75 23.75H7.75C6.42392 23.75 5.15215 23.2232 4.21447 22.2855C3.27678 21.3479 2.75 20.0761 2.75 18.75C2.75 17.4239 3.27678 16.1521 4.21447 15.2145C5.15215 14.2768 6.42392 13.75 7.75 13.75H10.75" stroke="var(--stroke-0, black)" stroke-width="1.5" stroke-linecap="round" stroke-linejoin="round"/>
</g>
</svg>
